HIERARCHY
ROOT Hips
{
	OFFSET 0.000000 0.000000 0.000000
	CHANNELS 6 Xposition Yposition Zposition Xrotation Yrotation Zrotation
	JOINT C_ctrl
	{
		OFFSET 0.000000 35.040482 -0.000011
		CHANNELS 3 Xrotation Yrotation Zrotation
		JOINT Bip01
		{
			OFFSET -41.537640 41.789009 -0.000007
			CHANNELS 3 Xrotation Yrotation Zrotation
			JOINT Bip01_Pelvis
			{
				OFFSET -2.462887 0.000000 0.000000
				CHANNELS 3 Xrotation Yrotation Zrotation
				JOINT BN_Tail_01
				{
					OFFSET -11.399368 7.351341 -0.000013
					CHANNELS 3 Xrotation Yrotation Zrotation
					JOINT BN_Tail_02
					{
						OFFSET -11.365196 -0.343025 0.000012
						CHANNELS 3 Xrotation Yrotation Zrotation
						JOINT BN_Tail_03
						{
							OFFSET -15.076256 -0.454979 0.000017
							CHANNELS 3 Xrotation Yrotation Zrotation
							JOINT BN_Tail_04
							{
								OFFSET -17.395691 -0.525002 0.000016
								CHANNELS 3 Xrotation Yrotation Zrotation
								JOINT BN_Tail_05
								{
									OFFSET -16.699837 -0.504005 0.000016
									CHANNELS 3 Xrotation Yrotation Zrotation
									End Site
									{
										OFFSET 0.503998 -16.699829 0.000067
									}
								}
							}
						}
					}
				}
				JOINT Bip01_Spine
				{
					OFFSET 8.297798 5.916809 -0.000020
					CHANNELS 3 Xrotation Yrotation Zrotation
					JOINT Bip01_R_Thigh
					{
						OFFSET -8.297779 -5.916794 10.541781
						CHANNELS 3 Xrotation Yrotation Zrotation
						JOINT Bip01_R_Calf
						{
							OFFSET 5.631542 -22.906792 0.862690
							CHANNELS 3 Xrotation Yrotation Zrotation
							JOINT Bip01_R_HorseLink
							{
								OFFSET -16.984341 -19.231926 -3.555767
								CHANNELS 3 Xrotation Yrotation Zrotation
								JOINT Bip01_R_Foot
								{
									OFFSET 4.290367 -24.783146 0.578056
									CHANNELS 3 Xrotation Yrotation Zrotation
									JOINT Bip01_R_Toe0
									{
										OFFSET 3.561211 -5.815116 0.760802
										CHANNELS 3 Xrotation Yrotation Zrotation
										JOINT Bip01_R_Toe0Nub
										{
											OFFSET 16.135469 0.002017 1.534789
											CHANNELS 3 Xrotation Yrotation Zrotation
											End Site
											{
												OFFSET -0.000002 16.208284 -0.000056
											}
										}
									}
								}
							}
						}
					}
					JOINT Bip01_L_Thigh
					{
						OFFSET -8.297813 -5.916832 -10.541739
						CHANNELS 3 Xrotation Yrotation Zrotation
						JOINT Bip01_L_Calf
						{
							OFFSET 5.631535 -22.906792 -0.862625
							CHANNELS 3 Xrotation Yrotation Zrotation
							JOINT Bip01_L_HorseLink
							{
								OFFSET -16.984318 -19.231949 3.555875
								CHANNELS 3 Xrotation Yrotation Zrotation
								JOINT Bip01_L_Foot
								{
									OFFSET 4.290367 -24.783169 -0.577965
									CHANNELS 3 Xrotation Yrotation Zrotation
									JOINT Bip01_L_Toe0
									{
										OFFSET 3.561245 -5.815111 -0.760799
										CHANNELS 3 Xrotation Yrotation Zrotation
										JOINT Bip01_L_Toe0Nub
										{
											OFFSET 6.574303 -0.000005 -1.538561
											CHANNELS 3 Xrotation Yrotation Zrotation
											End Site
											{
												OFFSET 0.000004 -6.751935 0.000023
											}
										}
									}
								}
							}
						}
					}
					JOINT Bip01_Spine1
					{
						OFFSET 20.556803 -4.626213 -0.000025
						CHANNELS 3 Xrotation Yrotation Zrotation
						JOINT Saddle
						{
							OFFSET 17.608810 18.174690 -0.000143
							CHANNELS 3 Xrotation Yrotation Zrotation
							End Site
							{
								OFFSET -0.000063 -0.000061 -22.448387
							}
						}
						JOINT BN_center
						{
							OFFSET 10.743275 -13.417107 -0.172041
							CHANNELS 3 Xrotation Yrotation Zrotation
							End Site
							{
								OFFSET 22.434088 0.553078 -0.579614
							}
						}
						JOINT Bip01_Spine2
						{
							OFFSET 24.765072 -2.054115 -0.000032
							CHANNELS 3 Xrotation Yrotation Zrotation
							JOINT Handle
							{
								OFFSET 63.735676 16.430748 -16.052464
								CHANNELS 3 Xrotation Yrotation Zrotation
								JOINT IK_Chain01
								{
									OFFSET -4.713058 -6.020439 0.185448
									CHANNELS 3 Xrotation Yrotation Zrotation
									End Site
									{
										OFFSET -0.000023 -0.000023 -7.648071
									}
								}
							}
							JOINT BN_hair04_01
							{
								OFFSET 1.987491 16.256981 -2.049672
								CHANNELS 3 Xrotation Yrotation Zrotation
								JOINT BN_hair04_02
								{
									OFFSET -1.318762 -3.831451 -6.174704
									CHANNELS 3 Xrotation Yrotation Zrotation
									JOINT BN_hair04_03
									{
										OFFSET -0.827490 -5.886627 -5.656666
										CHANNELS 3 Xrotation Yrotation Zrotation
										End Site
										{
											OFFSET -2.658262 5.010620 -5.929780
										}
									}
								}
							}
							JOINT Bip01_Neck
							{
								OFFSET 25.574577 9.433014 -0.000084
								CHANNELS 3 Xrotation Yrotation Zrotation
								JOINT Bip01_R_Clavicle
								{
									OFFSET -16.535652 0.011192 6.705692
									CHANNELS 3 Xrotation Yrotation Zrotation
									JOINT Bip01_R_UpperArm
									{
										OFFSET 20.272621 -12.959984 2.510816
										CHANNELS 3 Xrotation Yrotation Zrotation
										JOINT Bip01_R_Forearm
										{
											OFFSET -13.633509 -15.503704 -0.653585
											CHANNELS 3 Xrotation Yrotation Zrotation
											JOINT Bip01_R_Hand
											{
												OFFSET 2.580030 -27.804676 -1.136415
												CHANNELS 3 Xrotation Yrotation Zrotation
												JOINT Bip01_R_Finger0
												{
													OFFSET -0.281744 -19.659061 -0.398649
													CHANNELS 3 Xrotation Yrotation Zrotation
													JOINT Bip01_Xtra02
													{
														OFFSET 4.152210 -5.712314 0.433813
														CHANNELS 3 Xrotation Yrotation Zrotation
														JOINT Bip01_Xtra02Nub
														{
															OFFSET 15.457960 0.041654 0.507982
															CHANNELS 3 Xrotation Yrotation Zrotation
															End Site
															{
																OFFSET -15.421730 -0.157725 -1.163459
															}
														}
													}
													JOINT Bip01_R_Finger0Nub
													{
														OFFSET 8.362326 -9.718440 -0.143142
														CHANNELS 3 Xrotation Yrotation Zrotation
														End Site
														{
															OFFSET -1.213036 -0.198171 9.872291
														}
													}
												}
											}
										}
									}
								}
								JOINT Bip01_L_Clavicle
								{
									OFFSET -16.535673 0.011162 -6.705583
									CHANNELS 3 Xrotation Yrotation Zrotation
									JOINT Bip01_L_UpperArm
									{
										OFFSET 20.272615 -12.959999 -2.510836
										CHANNELS 3 Xrotation Yrotation Zrotation
										JOINT Bip01_L_Forearm
										{
											OFFSET -13.633495 -15.503681 0.653678
											CHANNELS 3 Xrotation Yrotation Zrotation
											JOINT Bip01_L_Hand
											{
												OFFSET 2.579988 -27.804686 1.136487
												CHANNELS 3 Xrotation Yrotation Zrotation
												JOINT Bip01_L_Finger0
												{
													OFFSET -0.281765 -19.659058 0.398696
													CHANNELS 3 Xrotation Yrotation Zrotation
													JOINT Bip01_Xtra01
													{
														OFFSET 4.083549 -5.738758 -0.666714
														CHANNELS 3 Xrotation Yrotation Zrotation
														JOINT Bip01_Xtra01Nub
														{
															OFFSET 6.758158 -0.395525 -0.023239
															CHANNELS 3 Xrotation Yrotation Zrotation
															End Site
															{
																OFFSET 6.764923 -0.254147 -0.029908
															}
														}
													}
													JOINT Bip01_L_Finger0Nub
													{
														OFFSET -0.012636 -9.629153 0.045740
														CHANNELS 3 Xrotation Yrotation Zrotation
														End Site
														{
															OFFSET 0.988407 0.004791 8.293357
														}
													}
												}
											}
										}
									}
								}
								JOINT BN_hair03_01
								{
									OFFSET -5.894140 16.270622 -2.498433
									CHANNELS 3 Xrotation Yrotation Zrotation
									JOINT BN_hair03_02
									{
										OFFSET -0.189278 -7.800507 -6.219162
										CHANNELS 3 Xrotation Yrotation Zrotation
										JOINT BN_hair03_03
										{
											OFFSET 0.612345 -10.844475 -3.370718
											CHANNELS 3 Xrotation Yrotation Zrotation
											End Site
											{
												OFFSET -2.273296 2.862007 -10.769416
											}
										}
									}
								}
								JOINT Bip01_Neck1
								{
									OFFSET 9.383755 11.908699 -0.000007
									CHANNELS 3 Xrotation Yrotation Zrotation
									JOINT BN_hair02_01
									{
										OFFSET 9.126320 18.808022 -1.420810
										CHANNELS 3 Xrotation Yrotation Zrotation
										JOINT BN_hair02_02
										{
											OFFSET 0.393478 -5.181091 -5.248574
											CHANNELS 3 Xrotation Yrotation Zrotation
											JOINT BN_hair02_03
											{
												OFFSET 0.762280 -8.167076 -0.230047
												CHANNELS 3 Xrotation Yrotation Zrotation
												End Site
												{
													OFFSET -0.025837 -1.251419 -8.109770
												}
											}
										}
									}
									JOINT Bip01_Head
									{
										OFFSET 14.266129 10.475403 -0.000008
										CHANNELS 3 Xrotation Yrotation Zrotation
										JOINT BN_Reins_01
										{
											OFFSET 18.547455 -15.740112 -0.000035
											CHANNELS 3 Xrotation Yrotation Zrotation
											JOINT BN_Reins_02
											{
												OFFSET -5.372810 -5.884506 0.000028
												CHANNELS 3 Xrotation Yrotation Zrotation
												JOINT BN_Reins_03
												{
													OFFSET -6.395866 -15.947449 0.000070
													CHANNELS 3 Xrotation Yrotation Zrotation
													JOINT BN_Halter_R_01
													{
														OFFSET -1.234055 -3.096100 7.096737
														CHANNELS 3 Xrotation Yrotation Zrotation
														End Site
														{
															OFFSET 10.514435 -4.176861 -0.000004
														}
													}
													JOINT BN_Halter_L_01
													{
														OFFSET -1.234062 -3.096146 -7.096726
														CHANNELS 3 Xrotation Yrotation Zrotation
														End Site
														{
															OFFSET -10.514435 4.176865 -0.000000
														}
													}
													JOINT BN_Reins_04
													{
														OFFSET -6.737644 -16.971684 0.000074
														CHANNELS 3 Xrotation Yrotation Zrotation
														JOINT BN_Halter_R_02
														{
															OFFSET -4.688869 -11.781956 7.096771
															CHANNELS 3 Xrotation Yrotation Zrotation
															End Site
															{
																OFFSET 14.669624 -5.827511 -0.000006
															}
														}
														JOINT BN_Halter_L_02
														{
															OFFSET -4.688892 -11.782017 -7.096693
															CHANNELS 3 Xrotation Yrotation Zrotation
															End Site
															{
																OFFSET -14.669624 5.827507 -0.000002
															}
														}
														JOINT BN_Reins_05
														{
															OFFSET -6.822578 -16.971161 0.000074
															CHANNELS 3 Xrotation Yrotation Zrotation
															JOINT BN_Reins_06
															{
																OFFSET -6.140354 -15.095148 0.000066
																CHANNELS 3 Xrotation Yrotation Zrotation
																End Site
																{
																	OFFSET -15.095150 6.140352 -0.000002
																}
															}
														}
													}
												}
											}
										}
										JOINT BN_hair01_01
										{
											OFFSET 8.957344 8.870956 0.112121
											CHANNELS 3 Xrotation Yrotation Zrotation
											JOINT BN_hair01_02
											{
												OFFSET 6.002075 -2.962952 -3.121264
												CHANNELS 3 Xrotation Yrotation Zrotation
												End Site
												{
													OFFSET 5.917702 3.813591 -2.232396
												}
											}
										}
										JOINT BN_Eyebrow_R
										{
											OFFSET 11.795959 -0.430496 4.449781
											CHANNELS 3 Xrotation Yrotation Zrotation
											JOINT Bip01_Xtra06Nub
											{
												OFFSET 2.936661 -0.262573 3.246701
												CHANNELS 3 Xrotation Yrotation Zrotation
												End Site
												{
													OFFSET 2.768745 0.208199 3.394807
												}
											}
										}
										JOINT BN_Eyebrow_L
										{
											OFFSET 11.586395 -0.445618 -4.441728
											CHANNELS 3 Xrotation Yrotation Zrotation
											JOINT Bip01_Xtra05Nub
											{
												OFFSET 3.244698 -0.349442 -4.416700
												CHANNELS 3 Xrotation Yrotation Zrotation
												End Site
												{
													OFFSET 3.053162 0.072495 -4.564033
												}
											}
										}
										JOINT Bip01_R_Ear_01
										{
											OFFSET 7.142960 7.567184 4.311657
											CHANNELS 3 Xrotation Yrotation Zrotation
											JOINT Bip01_Xtra04Nub
											{
												OFFSET 9.464531 9.264214 1.682953
												CHANNELS 3 Xrotation Yrotation Zrotation
												End Site
												{
													OFFSET 8.448181 10.159340 1.910823
												}
											}
										}
										JOINT Bip01__L_Ear_01
										{
											OFFSET 7.214943 7.717056 -4.356771
											CHANNELS 3 Xrotation Yrotation Zrotation
											JOINT Bip01_Xtra03Nub
											{
												OFFSET 9.230225 8.944366 -2.322746
												CHANNELS 3 Xrotation Yrotation Zrotation
												End Site
												{
													OFFSET 8.170288 9.841324 -2.643566
												}
											}
										}
										JOINT Bip01_Jaw
										{
											OFFSET 9.196068 -4.110695 -0.000013
											CHANNELS 3 Xrotation Yrotation Zrotation
											JOINT Bip01_Ponytail1Nub
											{
												OFFSET 10.976463 -21.082108 -0.000053
												CHANNELS 3 Xrotation Yrotation Zrotation
												End Site
												{
													OFFSET 11.247093 -20.938980 0.000113
												}
											}
										}
										JOINT Bip01_HeadNub
										{
											OFFSET 29.954575 -18.249489 -0.000063
											CHANNELS 3 Xrotation Yrotation Zrotation
											End Site
											{
												OFFSET -9.198448 -13.366348 0.000168
											}
										}
									}
								}
							}
						}
					}
				}
			}
		}
	}
}
MOTION
Frames: 4
Frame Time: 0.033333
0.000000 0.000000 0.000000 0.000008 0.000000 -0.000000 -0.000000 0.000000 -0.000000 -0.029262 -1.997896 -0.826916 -0.046615 -0.946167 -2.979698 2.256425 -1.843791 42.553117 -2.235178 3.480546 37.735176 -1.484189 3.252896 34.131866 1.119508 -5.247341 8.485853 -4.328202 -17.726634 -29.942706 0.148493 1.939387 6.879538 -4.312769 13.734075 -4.478019 -0.409325 -0.029887 2.078863 1.102593 0.006624 -5.587486 5.923837 -11.827667 6.222852 0.069118 0.004922 -0.004253 0.000101 -0.000137 0.000004 8.744757 -9.617534 14.822431 -1.324436 0.005065 -6.712722 -3.365948 0.321578 -17.186974 -5.299308 10.429075 7.577099 -0.000888 0.000005 -0.003709 0.008762 -0.000456 0.038597 0.108296 0.982296 -2.368423 0.917530 -0.020778 6.784383 -0.003565 -0.188671 0.020278 0.035378 0.966671 0.666948 0.000078 -0.000112 -0.000055 -0.000045 -0.014955 0.015042 6.314675 3.250236 -3.773638 4.868238 1.181118 -2.527804 22.199319 3.282918 -10.313400 1.240654 -0.878066 -7.768557 0.514985 1.400695 8.899780 -5.661547 -4.916745 12.172942 0.125711 0.686070 -17.069758 7.542697 2.871971 4.210368 -4.304855 4.320583 -2.303701 -0.005230 -0.003784 0.005683 -0.802214 0.160619 -0.479875 -0.804179 0.123471 -0.482664 -3.160027 1.812961 -1.771026 2.172294 -1.060842 20.501778 -0.251550 1.136134 28.670098 -2.218622 2.557568 -39.683546 1.700889 -6.668061 -16.523445 0.036563 -7.600272 0.021661 0.036622 0.063793 2.451865 -0.000913 0.100573 2.451956 6.686528 0.678136 -1.178732 1.406690 0.167983 -0.845571 14.838344 1.175315 -5.466757 -3.566528 3.038165 -5.932909 14.246404 1.460783 -0.655926 11.852245 0.803628 -0.598450 18.005589 1.133568 0.579725 -1.871305 3.341470 -1.168126 -0.000030 0.000324 33.480078 -0.441789 -0.458728 -72.796108 -0.000059 -0.000070 -21.993986 0.000020 -0.000008 -0.026805 0.000003 -0.000016 0.012747 -0.000095 -0.000109 -34.639854 0.000036 0.000016 0.015163 0.000025 -0.000009 0.012723 -0.000049 -0.000055 -24.223443 0.000013 -0.000012 -0.000043 4.849187 5.726329 7.174224 8.444130 1.352272 11.631148 -14.875768 -5.100532 -15.246155 0.024223 -0.030047 11.786591 9.673775 -2.980140 -13.954684 0.023211 -0.032305 11.715991 4.287104 1.474911 -24.077453 0.022920 0.006889 11.753040 -1.079667 -4.910660 -23.969483 0.050123 0.014761 11.743096 -4.562703 -3.872186 -4.821718 -0.004516 -0.052610 11.750674 0.000072 -0.000034 11.750677 
0.000000 0.000000 0.000000 0.000008 0.000000 -0.000000 -0.000000 0.000000 -0.000000 -0.029088 -1.997914 -0.817758 -0.045476 -0.789074 -2.660052 2.501728 -2.123820 42.044233 -2.106121 3.323435 36.946587 -1.708906 3.648453 34.546940 1.038377 -4.089832 10.743257 -3.898740 -17.369116 -28.086617 0.164899 1.782563 6.448179 -4.360851 13.726084 -4.257292 -0.408177 -0.029784 2.073035 1.121158 0.005814 -5.681616 5.922918 -11.827679 6.213112 0.069118 0.004924 -0.004253 0.000101 -0.000138 0.000004 8.782983 -9.591766 15.067643 -1.307436 0.004017 -6.626439 -3.407304 0.332014 -17.402779 -5.295699 10.429136 7.567617 -0.000888 0.000008 -0.003709 0.008762 -0.000455 0.038597 0.106902 0.982444 -2.205830 0.917530 -0.020778 6.784382 -0.003565 -0.188671 0.020278 0.032064 0.966565 0.645413 0.000078 -0.000112 -0.000055 -0.000045 -0.014955 0.015042 5.882245 2.997994 -3.460110 4.411928 1.036555 -2.217172 21.342065 3.238987 -9.851828 1.197719 -0.833019 -7.903241 0.557788 1.363660 9.029105 -5.656366 -4.921238 12.340768 0.127120 0.690169 -17.175441 7.540211 2.863125 4.108174 -4.304854 4.320583 -2.303701 -0.004965 -0.003715 0.005714 -0.802241 0.160617 -0.479877 -0.804179 0.123471 -0.482664 -3.109079 1.711147 -1.295008 2.374630 -1.060347 18.341139 -0.253734 1.140443 28.787895 -2.475270 2.725026 -38.391691 1.777273 -6.648376 -15.721174 0.036006 -7.543421 0.021177 0.036622 0.063792 2.451869 -0.000913 0.100573 2.451955 6.053872 0.622291 -1.066786 0.979787 0.124247 -0.564431 13.447638 1.104499 -4.943818 -3.642980 3.089018 -5.388727 13.980793 1.390060 -0.566319 11.365117 0.808393 -0.524583 17.514787 1.117092 0.524164 -2.020468 3.508769 -0.223834 -0.000030 0.000325 33.480074 -0.441789 -0.458728 -72.796115 -0.000059 -0.000070 -21.993991 0.000020 -0.000008 -0.026802 0.000003 -0.000016 0.012750 -0.000095 -0.000109 -34.639858 0.000036 0.000015 0.015168 0.000026 -0.000011 0.012720 -0.000048 -0.000056 -24.223438 0.000014 -0.000013 -0.000050 4.557451 5.814713 6.548448 8.083700 1.412601 10.754393 -14.739436 -5.195378 -15.344631 0.024237 -0.030041 11.786618 9.515738 -2.984813 -14.068157 0.023228 -0.032297 11.715967 4.077567 1.654584 -24.086519 0.022933 0.006914 11.753044 -1.294701 -4.732136 -23.985457 0.050137 0.014786 11.743085 -4.454306 -3.644562 -5.936979 -0.004497 -0.052631 11.750675 0.000072 -0.000034 11.750680 
0.000000 0.000000 0.000000 0.000008 0.000000 -0.000000 -0.000000 0.000000 -0.000000 -0.028949 -1.997903 -0.809659 -0.042084 -0.624194 -2.339013 2.729861 -2.384617 41.579828 -1.968685 3.161582 36.175011 -1.913212 3.994760 34.832425 0.911907 -2.993022 12.805729 -3.369264 -16.737580 -25.793569 0.179131 1.618446 6.032100 -4.402412 13.719169 -4.065443 -0.407056 -0.029681 2.067329 1.138143 0.005045 -5.767740 5.921410 -11.828295 6.204548 0.069118 0.004922 -0.004253 0.000101 -0.000137 0.000004 8.817843 -9.568729 15.291672 -1.290765 0.003011 -6.541860 -3.446924 0.342162 -17.609705 -5.292162 10.429183 7.558316 -0.000888 0.000006 -0.003709 0.008762 -0.000458 0.038597 0.105591 0.982573 -2.053249 0.917530 -0.020778 6.784383 -0.003565 -0.188671 0.020278 0.032446 0.966560 0.600111 0.000078 -0.000112 -0.000056 -0.000045 -0.014955 0.015042 5.457087 2.740008 -3.144330 3.991508 0.904002 -1.929257 20.315001 3.185486 -9.327367 1.152804 -0.789973 -8.009961 0.608936 1.328062 9.137901 -5.647819 -4.928510 12.515053 0.128318 0.693636 -17.264879 7.535165 2.856605 4.007873 -4.304854 4.320583 -2.303702 -0.004965 -0.003639 0.005713 -0.802268 0.160617 -0.479879 -0.804179 0.123470 -0.482664 -3.044005 1.551506 -0.448561 2.675911 -1.044037 15.580467 -0.234801 1.102339 27.750261 -2.878748 2.916053 -35.562657 1.879445 -6.575219 -14.378016 0.035486 -7.487677 0.020749 0.036622 0.063792 2.451865 -0.000914 0.100573 2.451954 5.453862 0.568186 -0.961138 0.643648 0.088908 -0.341699 12.084612 1.022824 -4.432852 -3.711714 3.139733 -4.834676 13.770397 1.332980 -0.495246 10.924268 0.811290 -0.456572 17.033489 1.101396 0.469556 -2.181197 3.643994 0.750044 -0.000029 0.000324 33.480078 -0.441790 -0.458728 -72.796102 -0.000060 -0.000070 -21.993986 0.000019 -0.000008 -0.026803 0.000003 -0.000016 0.012749 -0.000095 -0.000108 -34.639854 0.000035 0.000015 0.015163 0.000025 -0.000011 0.012718 -0.000049 -0.000056 -24.223447 0.000013 -0.000013 -0.000048 4.272299 5.904512 5.935175 7.731206 1.477106 9.895026 -14.605907 -5.288604 -15.441004 0.024252 -0.030047 11.786635 9.336014 -2.977246 -14.198688 0.023242 -0.032293 11.715942 3.849082 1.834627 -24.024567 0.022944 0.006939 11.753048 -1.505453 -4.540723 -23.928152 0.050145 0.014809 11.743078 -4.320768 -3.398021 -7.074978 -0.004479 -0.052653 11.750676 0.000072 -0.000034 11.750680 
0.000000 0.000000 0.000000 0.000008 0.000000 -0.000000 -0.000000 0.000000 -0.000000 -0.028805 -1.997891 -0.801403 -0.037478 -0.452912 -2.013437 2.943712 -2.636166 41.143885 -1.832036 2.962995 35.411963 -2.080841 4.295213 35.005799 0.755805 -1.933293 14.729672 -2.863283 -16.079792 -23.491777 0.195224 1.445447 5.622365 -4.438617 13.712841 -3.895554 -0.408571 -0.029818 2.075035 1.155295 0.004246 -5.854715 5.919891 -11.828923 6.195899 0.069118 0.004923 -0.004253 0.000101 -0.000137 0.000004 8.850737 -9.547929 15.501509 -1.273602 0.002004 -6.454768 -3.486896 0.352557 -17.818668 -5.288585 10.429229 7.548919 -0.000888 0.000007 -0.003709 0.008762 -0.000457 0.038597 0.104303 0.982725 -1.902648 0.917530 -0.020778 6.784384 -0.003565 -0.188672 0.020278 0.033098 0.966532 0.522688 0.000078 -0.000112 -0.000055 -0.000045 -0.014955 0.015042 5.046196 2.465935 -2.832193 3.602338 0.779393 -1.665809 19.278001 3.119198 -8.800152 1.107697 -0.746169 -8.091898 0.658315 1.291567 9.219318 -5.635437 -4.938619 12.700867 0.129387 0.696714 -17.344336 7.530061 2.850057 3.906583 -4.304854 4.320584 -2.303701 -0.004960 -0.003933 0.005718 -0.802323 0.160617 -0.479883 -0.804179 0.123472 -0.482664 -2.975460 1.338997 0.686976 3.031669 -1.005501 12.671182 -0.194407 1.014616 25.394934 -3.404191 3.083580 -31.443920 1.995850 -6.460425 -12.608993 0.034903 -7.431382 0.020285 0.036650 0.063793 2.451866 -0.000913 0.100573 2.451956 4.855540 0.513128 -0.856349 0.390556 0.065455 -0.177299 10.708937 0.927997 -3.918968 -3.777268 3.184761 -4.261597 13.612842 1.289835 -0.441755 10.511204 0.815364 -0.396668 16.547445 1.086017 0.414275 -2.364033 3.750002 1.765731 -0.000030 0.000324 33.480078 -0.441791 -0.458728 -72.796102 -0.000059 -0.000070 -21.993991 0.000021 -0.000008 -0.026807 0.000003 -0.000016 0.012745 -0.000095 -0.000108 -34.639854 0.000036 0.000015 0.015168 0.000025 -0.000011 0.012725 -0.000048 -0.000056 -24.223442 0.000013 -0.000012 -0.000055 3.985272 5.998248 5.316172 7.376229 1.547603 9.027547 -14.448121 -5.389807 -15.552605 0.024282 -0.030028 11.786678 9.154532 -2.969177 -14.330517 0.023271 -0.032289 11.715897 3.598740 2.016948 -23.893211 0.022972 0.006985 11.753057 -1.722951 -4.328255 -23.799442 0.050170 0.014857 11.743068 -4.163645 -3.134728 -8.252644 -0.004445 -0.052693 11.750669 0.000072 -0.000033 11.750675 
